#!OML:ASF E:\Steps\Project 1\Capture day 1\Session 2\Subject.ASF
:FULLY-SPECIFIED
:DEGREES
423
root 9.66424 16.3854 9.1695 26.8781 0.303059 -358.977
lowerback -28.4337 -1.71764 -5.06101
upperback -3.06084 -0.550808 -0.759223
thorax 12.3898 -0.48343 1.84517
lowerneck 2.85805 -3.35289 -1.86703
upperneck -19.8121 -3.58499 6.79826
head -6.28951 -2.12712 2.70266
rclavicle -2.5842e-015 1.19271e-015
rhumerus -31.4333 -27.9482 -78.3627
rradius 19.24
rwrist 11.2478
rhand -10.5716 -50.7172
rfingers 7.12502
rthumb 15.4332 -80.1211
lclavicle -2.5842e-015 1.19271e-015
lhumerus -27.6866 2.03961 85.0863
lradius 20.932
lwrist -3.37272
lhand -26.198 -14.3799
lfingers 7.12502
lthumb 0.35451 15.5995
rfemur -24.6335 7.23561 18.0499
rtibia 6.76648
rfoot -15.8065 -11.2634
rtoes -38.2263
lfemur -24.0602 -8.87619 -18.2022
ltibia 7.31197
lfoot -7.39179 4.20301
ltoes -38.057
424
root 9.66449 16.3843 9.16629 26.8597 0.451954 -359.142
lowerback -28.0757 -1.68512 -4.84882
upperback -3.40306 -0.618643 -0.682531
thorax 11.8071 -0.489397 1.79212
lowerneck 3.29282 -3.36132 -1.9478
upperneck -19.7173 -3.59993 6.85096
head -6.33152 -2.13712 2.74137
rclavicle -2.93207e-015 4.77083e-015
rhumerus -32.0779 -27.6897 -78.2411
rradius 19.424
rwrist 11.2093
rhand -10.7485 -50.8508
rfingers 7.12502
rthumb 15.2627 -80.2677
lclavicle -2.93207e-015 4.77083e-015
lhumerus -28.0822 2.44638 84.997
lradius 20.5039
lwrist -4.04119
lhand -26.2127 -14.7495
lfingers 7.12502
lthumb 0.340314 15.2299
rfemur -24.4689 7.16667 18.3004
rtibia 6.51689
rfoot -15.6809 -11.2008
rtoes -38.3378
lfemur -24.1794 -9.07254 -17.9504
ltibia 7.54749
lfoot -7.49329 4.29416
ltoes -37.8631
425
root 9.66405 16.3839 9.16144 26.897 0.544467 -359.218
lowerback -28.7139 -1.68867 -4.75882
upperback -3.03579 -0.604743 -0.642025
thorax 12.5679 -0.499905 1.78216
lowerneck 2.84693 -3.40325 -1.88331
upperneck -19.86 -3.64786 6.8316
head -6.29864 -2.15923 2.72049
rclavicle -3.18055e-015 -8.34896e-015
rhumerus -31.4272 -27.558 -78.7965
rradius 19.7431
rwrist 11.0676
rhand -10.5845 -51.3944
rfingers 7.12502
rthumb 15.4208 -80.7992
lclavicle -3.18055e-015 -8.34896e-015
lhumerus -27.1595 3.19606 84.8428
lradius 19.8201
lwrist -5.18542
lhand -26.2298 -15.3561
lfingers 7.12502
lthumb 0.32377 14.6234
rfemur -24.3715 7.25888 18.381
rtibia 6.14128
rfoot -15.4034 -11.3367
rtoes -38.5852
lfemur -24.3654 -9.15832 -17.8177
ltibia 7.76167
lfoot -7.55751 4.29954
ltoes -37.485
426
root 9.6625 16.383 9.15768 26.9322 0.503051 -359.269
lowerback -28.4392 -1.61082 -4.72285
upperback -3.35307 -0.541279 -0.644801
thorax 12.0485 -0.454141 1.78838
lowerneck 3.07758 -3.45973 -1.87
upperneck -19.7465 -3.72448 6.85481
head -6.29907 -2.20048 2.73228
rclavicle -8.44835e-016 3.97569e-015
rhumerus -32.0929 -27.1697 -78.7768
rradius 20.1655
rwrist 10.6273
rhand -10.4235 -51.6068
rfingers 7.12502
rthumb 15.5758 -80.9996
lclavicle -8.44835e-016 3.97569e-015
lhumerus -27.3503 3.73397 84.6168
lradius 19.173
lwrist -6.41541
lhand -26.2823 -15.8654
lfingers 7.12502
lthumb 0.273118 14.1142
rfemur -24.3439 7.42786 18.3841
rtibia 5.71719
rfoot -15.0023 -11.4723
rtoes -38.8829
lfemur -24.4675 -9.08895 -17.7711
ltibia 7.86228
lfoot -7.56263 4.30186
ltoes -37.2567
427
root 9.65889 16.3825 9.15144 26.88 0.403731 -359.283
lowerback -28.678 -1.60187 -4.77447
upperback -3.18266 -0.497134 -0.61901
thorax 12.3698 -0.446221 1.86117
lowerneck 2.88351 -3.466 -1.82593
upperneck -19.9061 -3.73071 6.80688
head -6.31793 -2.20214 2.70966
rclavicle 1.63997e-015 3.57812e-015
rhumerus -31.693 -27.2786 -78.9639
rradius 20.0613
rwrist 10.6182
rhand -10.4998 -51.3882
rfingers 7.12502
rthumb 15.5023 -80.7867
lclavicle 1.63997e-015 3.57812e-015
lhumerus -26.6066 4.40363 84.446
lradius 18.3111
lwrist -7.50281
lhand -26.213 -15.7704
lfingers 7.12502
lthumb 0.340019 14.2091
rfemur -24.2983 7.37214 18.4517
rtibia 5.92307
rfoot -15.2725 -11.315
rtoes -38.5185
lfemur -24.4338 -9.012 -17.7728
ltibia 7.87832
lfoot -7.53455 4.3288
ltoes -37.0428
428
root 9.65553 16.384 9.14363 26.7613 0.298046 -359.205
lowerback -28.6464 -1.59947 -4.8829
upperback -3.10826 -0.45474 -0.655614
thorax 12.4381 -0.433871 1.89747
lowerneck 2.77166 -3.47784 -1.7726
upperneck -19.9196 -3.7474 6.77198
head -6.30414 -2.21011 2.68824
rclavicle -3.926e-015 -5.1684e-015
rhumerus -31.4269 -27.2207 -79.2478
rradius 19.9638
rwrist 10.5978
rhand -10.7232 -51.2822
rfingers 7.12502
rthumb 15.2871 -80.6972
lclavicle -3.926e-015 -5.1684e-015
lhumerus -26.1722 4.64539 84.3352
lradius 17.75
lwrist -8.05743
lhand -25.5375 -14.7652
lfingers 7.12502
lthumb 0.992425 15.2123
rfemur -24.2133 7.38483 18.3563
rtibia 5.98851
rfoot -15.3857 -11.2089
rtoes -38.0686
lfemur -24.3451 -8.93913 -17.8881
ltibia 7.90521
lfoot -7.56568 4.31147
ltoes -36.8022
429
root 9.65449 16.3851 9.13737 26.7118 0.196627 -359.157
lowerback -28.616 -1.57511 -4.92738
upperback -3.12245 -0.407181 -0.688792
thorax 12.4023 -0.412491 1.90364
lowerneck 2.74741 -3.51414 -1.75452
upperneck -19.8575 -3.7967 6.77989
head -6.27818 -2.23497 2.6882
rclavicle -5.96354e-016 -5.96354e-015
rhumerus -31.2733 -27.0135 -79.5157
rradius 19.8885
rwrist 10.6182
rhand -11.0398 -50.9526
rfingers 7.12502
rthumb 14.9821 -80.3906
lclavicle -5.96354e-016 -5.96354e-015
lhumerus -26.0383 4.66489 84.3177
lradius 17.4504
lwrist -8.41371
lhand -24.4313 -13.3851
lfingers 7.12502
lthumb 2.06079 16.5847
rfemur -24.2062 7.35201 18.291
rtibia 5.98794
rfoot -15.3584 -11.0225
rtoes -37.7942
lfemur -24.3203 -8.82928 -17.9855
ltibia 7.95083
lfoot -7.6129 4.29325
ltoes -37.0411
430
root 9.65627 16.3835 9.13269 26.751 0.193083 -359.253
lowerback -28.6896 -1.53096 -4.75815
upperback -3.16866 -0.401305 -0.678721
thorax 12.3853 -0.400513 1.81981
lowerneck 2.78404 -3.55558 -1.75399
upperneck -19.8521 -3.84457 6.83455
head -6.27926 -2.26286 2.70891
rclavicle 9.0944e-015 7.95139e-016
rhumerus -31.1475 -26.6516 -79.7903
rradius 19.8847
rwrist 10.4625
rhand -11.2437 -50.4873
rfingers 7.12502
rthumb 14.7857 -79.9399
lclavicle 9.0944e-015 7.95139e-016
lhumerus -25.9261 4.80048 84.2632
lradius 17.1337
lwrist -9.12431
lhand -23.6499 -12.2592
lfingers 7.12502
lthumb 2.81544 17.7019
rfemur -24.2588 7.16476 18.4688
rtibia 5.99107
rfoot -15.3353 -10.7812
rtoes -37.9119
lfemur -24.3693 -8.74272 -17.9092
ltibia 7.97986
lfoot -7.62485 4.26606
ltoes -37.5453
431
root 9.65939 16.3803 9.12679 26.7535 0.17811 -359.366
lowerback -28.6948 -1.44401 -4.55665
upperback -3.21285 -0.350415 -0.696171
thorax 12.3317 -0.364939 1.70344
lowerneck 2.67717 -3.61142 -1.70217
upperneck -19.7304 -3.91548 6.86505
head -6.21927 -2.30046 2.7079
rclavicle -2.18663e-015 6.75868e-015
rhumerus -31.0597 -26.3049 -80.0971
rradius 19.9353
rwrist 10.3039
rhand -11.2679 -50.5057
rfingers 7.12502
rthumb 14.7624 -79.96
lclavicle -2.18663e-015 6.75868e-015
lhumerus -25.7763 4.87418 84.1896
lradius 16.8042
lwrist -9.86592
lhand -23.1501 -11.5879
lfingers 7.12502
lthumb 3.2981 18.3663
rfemur -24.2719 6.83583 18.7098
rtibia 6.00903
rfoot -15.3359 -10.5008
rtoes -38.3476
lfemur -24.3277 -8.70245 -17.824
ltibia 7.91498
lfoot -7.59227 4.24296
ltoes -37.4031
432
root 9.66005 16.3782 9.11882 26.7592 0.0369653 -359.389
lowerback -28.6921 -1.36591 -4.51983
upperback -3.24743 -0.258998 -0.718484
thorax 12.2838 -0.319328 1.69202
lowerneck 2.58751 -3.66016 -1.6751
upperneck -19.6734 -3.98024 6.87498
head -6.18303 -2.33265 2.70623
rclavicle 1.16786e-014 -1.19271e-015
rhumerus -30.9287 -26.1908 -80.2929
rradius 19.8236
rwrist 10.6002
rhand -11.3188 -50.7757
rfingers 7.12502
rthumb 14.7133 -80.2336
lclavicle 1.16786e-014 -1.19271e-015
lhumerus -25.6834 4.70714 84.2622
lradius 16.6521
lwrist -10.1211
lhand -22.7141 -11.4556
lfingers 7.12502
lthumb 3.71919 18.4917
rfemur -24.3723 6.71948 18.748
rtibia 6.11265
rfoot -15.3532 -10.26
rtoes -38.4849
lfemur -24.2815 -8.66057 -17.8262
ltibia 7.78008
lfoot -7.51736 4.3139
ltoes -36.9987
433
root 9.65934 16.377 9.11288 26.7834 -0.0918037 -359.396
lowerback -28.7692 -1.33734 -4.50243
upperback -3.27383 -0.224602 -0.714149
thorax 12.2908 -0.302751 1.70002
lowerneck 2.65915 -3.6811 -1.70216
upperneck -19.7632 -4.0046 6.89749
head -6.22159 -2.34625 2.72345
rclavicle 5.01931e-015 7.95139e-015
rhumerus -30.7653 -26.5679 -80.2319
rradius 19.4245
rwrist 11.477
rhand -11.4943 -50.5296
rfingers 7.12502
rthumb 14.5442 -79.9998
lclavicle 5.01931e-015 7.95139e-015
lhumerus -25.6491 4.49736 84.3804
lradius 16.5688
lwrist -10.1873
lhand -22.2192 -11.4835
lfingers 7.12502
lthumb 4.19706 18.4549
rfemur -24.5185 6.73863 18.7333
rtibia 6.26922
rfoot -15.4712 -10.1199
rtoes -38.105
lfemur -24.2908 -8.6179 -17.8239
ltibia 7.68113
lfoot -7.48004 4.40805
ltoes -36.9013
